#tb 0: 1/25
0,          0,          0,        1,   599040, 0xf3038515
0,          1,          1,        1,   599040, 0xb1bc9386
0,          2,          2,        1,   599040, 0xa069e86f
0,          3,          3,        1,   599040, 0xdf7c4cb7
0,          4,          4,        1,   599040, 0xefaa2ac5
0,          5,          5,        1,   599040, 0x81c67c18
0,          6,          6,        1,   599040, 0xeb1a0669
0,          7,          7,        1,   599040, 0xbab3c0b8
0,          8,          8,        1,   599040, 0x82b99936
0,          9,          9,        1,   599040, 0x027a90d1
0,         10,         10,        1,   599040, 0x5d6d7489
0,         11,         11,        1,   599040, 0xeaaf6d39
0,         12,         12,        1,   599040, 0x7788f8fa
0,         13,         13,        1,   599040, 0x654393e8
0,         14,         14,        1,   599040, 0xc6c2237c
0,         15,         15,        1,   599040, 0x8b16d890
0,         16,         16,        1,   599040, 0x2c36eed0
0,         17,         17,        1,   599040, 0x02792aa8
0,         18,         18,        1,   599040, 0xf4088e47
0,         19,         19,        1,   599040, 0xea9796ad
0,         20,         20,        1,   599040, 0xa4aecc01
0,         21,         21,        1,   599040, 0x2ec8c1c4
0,         22,         22,        1,   599040, 0xcfa87d49
0,         23,         23,        1,   599040, 0x012b62f1
0,         24,         24,        1,   599040, 0xd8b72ae0
0,         25,         25,        1,   599040, 0xe0ca1977
0,         26,         26,        1,   599040, 0x3f048981
0,         27,         27,        1,   599040, 0xe416a928
0,         28,         28,        1,   599040, 0xdfef9086
0,         29,         29,        1,   599040, 0xd810cd6a
0,         30,         30,        1,   599040, 0x11fab789
0,         31,         31,        1,   599040, 0x90a890d5
0,         32,         32,        1,   599040, 0x0dabef8d
0,         33,         33,        1,   599040, 0x7a32557d
0,         34,         34,        1,   599040, 0xc3427914
0,         35,         35,        1,   599040, 0x65266a45
0,         36,         36,        1,   599040, 0x8b5e9213
0,         37,         37,        1,   599040, 0x4e2e2b0a
0,         38,         38,        1,   599040, 0xaebdb406
0,         39,         39,        1,   599040, 0xca35eadb
0,         40,         40,        1,   599040, 0xb711adc7
0,         41,         41,        1,   599040, 0x594d28b9
0,         42,         42,        1,   599040, 0x27fec3c9
0,         43,         43,        1,   599040, 0x35fe73ce
0,         44,         44,        1,   599040, 0x3069c845
0,         45,         45,        1,   599040, 0x2df2a12d
0,         46,         46,        1,   599040, 0x96d42f5c
0,         47,         47,        1,   599040, 0x95d9319b
0,         48,         48,        1,   599040, 0x4f8c92aa
0,         49,         49,        1,   599040, 0x29620b31
0,         50,         50,        1,   599040, 0x3d1441f7
0,         51,         51,        1,   599040, 0x7040914d
0,         52,         52,        1,   599040, 0x95a73274
0,         53,         53,        1,   599040, 0xda51c6c7
0,         54,         54,        1,   599040, 0x41592676
0,         55,         55,        1,   599040, 0xf21c682b
0,         56,         56,        1,   599040, 0x5d6b65cf
0,         57,         57,        1,   599040, 0x13fc6e8e
0,         58,         58,        1,   599040, 0xe05ec001
0,         59,         59,        1,   599040, 0x06113d89
0,         60,         60,        1,   599040, 0x1d74bd0d
0,         61,         61,        1,   599040, 0x757ffab3
0,         62,         62,        1,   599040, 0x0599c7fb
0,         63,         63,        1,   599040, 0x8aaa91ed
0,         64,         64,        1,   599040, 0x79582f08
